<svg width="70" height="70" viewBox="0 0 70 70" fill="none" xmlns="http://www.w3.org/2000/svg">
<g filter="url(#filter0_d_152_4601)">
<path d="M3 34C3 16.3269 17.3269 2 35 2C52.6731 2 67 16.3269 67 34C67 51.6731 52.6731 66 35 66C17.3269 66 3 51.6731 3 34Z" fill="#333333"/>
<path d="M35 36.5C36.6569 36.5 38 35.1569 38 33.5C38 31.8431 36.6569 30.5 35 30.5C33.3431 30.5 32 31.8431 32 33.5C32 35.1569 33.3431 36.5 35 36.5Z" fill="white" stroke="white" stroke-width="1.8" stroke-linecap="round" stroke-linejoin="round"/>
<path d="M35 36.5V50.5" stroke="white" stroke-width="1.8" stroke-linecap="round"/>
<path d="M42.2095 26.3034C43.1581 27.2492 43.9106 28.3724 44.424 29.6087C44.9374 30.845 45.2017 32.1702 45.2017 33.5085C45.2017 34.8468 44.9374 36.172 44.424 37.4083C43.9106 38.6446 43.1581 39.7678 42.2095 40.7136M27.7905 40.6966C26.8419 39.7508 26.0894 38.6276 25.576 37.3913C25.0626 36.155 24.7983 34.8298 24.7983 33.4915C24.7983 32.1532 25.0626 30.828 25.576 29.5917C26.0894 28.3554 26.8419 27.2322 27.7905 26.2864M47.0216 21.5C50.2093 24.6829 52 28.9993 52 33.5C52 38.0007 50.2093 42.3171 47.0216 45.5M22.9784 45.5C19.7907 42.3171 18 38.0007 18 33.5C18 28.9993 19.7907 24.6829 22.9784 21.5" stroke="white" stroke-width="1.8" stroke-linecap="round" stroke-linejoin="round"/>
</g>
<defs>
<filter id="filter0_d_152_4601" x="0" y="0" width="70" height="70" filterUnits="userSpaceOnUse" color-interpolation-filters="sRGB">
<feFlood flood-opacity="0" result="BackgroundImageFix"/>
<feColorMatrix in="SourceAlpha" type="matrix" values="0 0 0 0 0 0 0 0 0 0 0 0 0 0 0 0 0 0 127 0" result="hardAlpha"/>
<feOffset dy="1"/>
<feGaussianBlur stdDeviation="1.5"/>
<feComposite in2="hardAlpha" operator="out"/>
<feColorMatrix type="matrix" values="0 0 0 0 0 0 0 0 0 0 0 0 0 0 0 0 0 0 0.3 0"/>
<feBlend mode="normal" in2="BackgroundImageFix" result="effect1_dropShadow_152_4601"/>
<feBlend mode="normal" in="SourceGraphic" in2="effect1_dropShadow_152_4601" result="shape"/>
</filter>
</defs>
</svg>
