<svg width="48" height="48" viewBox="0 0 48 48" fill="none" xmlns="http://www.w3.org/2000/svg">
<path d="M41.3334 19.8787C41.3334 32.052 28.9878 42.7576 25.1347 45.8025C24.4649 46.3317 23.5352 46.3317 22.8655 45.8025C19.0123 42.7576 6.66675 32.052 6.66675 19.8787C6.66675 14.9601 8.49293 10.243 11.7436 6.76509C14.9942 3.28714 19.403 1.33325 24.0001 1.33325C28.5972 1.33325 33.006 3.28714 36.2566 6.76509C39.5072 10.243 41.3334 14.9601 41.3334 19.8787Z" fill="#49DC92"/>
<path d="M24.0001 27.9999C29.1547 27.9999 33.3334 23.8212 33.3334 18.6666C33.3334 13.5119 29.1547 9.33325 24.0001 9.33325C18.8454 9.33325 14.6667 13.5119 14.6667 18.6666C14.6667 23.8212 18.8454 27.9999 24.0001 27.9999Z" fill="white"/>
</svg>
