<svg width="23" height="24" viewBox="0 0 23 24" fill="none" xmlns="http://www.w3.org/2000/svg">
<path d="M14.2458 7.74178C14.2458 7.94644 14.3271 8.14273 14.4718 8.28745C14.6165 8.43217 14.8128 8.51347 15.0175 8.51347H22.7628V0.77524C22.7628 0.569633 22.6811 0.372448 22.5357 0.227062C22.3904 0.0816768 22.1932 0 21.9876 0C21.782 0 21.5848 0.0816768 21.4394 0.227062C21.294 0.372448 21.2123 0.569633 21.2123 0.77524V5.83023C19.7606 3.70432 17.6439 2.12078 15.1946 1.32827C12.7453 0.535769 10.1022 0.579183 7.68027 1.4517C5.25834 2.32421 3.19479 3.97641 1.81365 6.14885C0.43251 8.32129 -0.187986 10.8909 0.0495979 13.4542C0.287181 16.0176 1.36939 18.4294 3.12628 20.311C4.88317 22.1925 7.21523 23.4373 9.75627 23.8498C12.2973 24.2624 14.9034 23.8193 17.1653 22.5901C19.4272 21.3609 21.2168 19.4153 22.2531 17.0588C22.3298 16.8677 22.3292 16.6543 22.2513 16.4636C22.1735 16.273 22.0245 16.1201 21.836 16.0373C21.6474 15.9545 21.4341 15.9484 21.241 16.0201C21.048 16.0918 20.8904 16.2358 20.8017 16.4216C19.9024 18.4699 18.3447 20.1591 16.3759 21.2211C14.4071 22.2832 12.14 22.6572 9.93436 22.284C7.72874 21.9107 5.71098 20.8114 4.2013 19.1607C2.69163 17.5099 1.77654 15.4022 1.60127 13.1721C1.426 10.942 2.00059 8.71724 3.23385 6.85091C4.4671 4.98458 6.28837 3.58362 8.40859 2.87035C10.5288 2.15709 12.8265 2.1724 14.9371 2.91384C17.0476 3.65529 18.85 5.0804 20.0583 6.963H15.0246C14.922 6.96205 14.8203 6.98155 14.7254 7.02035C14.6305 7.05915 14.5443 7.11648 14.4718 7.18899C14.3993 7.26149 14.342 7.34772 14.3032 7.44264C14.2643 7.53755 14.2448 7.63924 14.2458 7.74178Z" fill="#49DC92"/>
</svg>
