<svg width="70" height="70" viewBox="0 0 70 70" fill="none" xmlns="http://www.w3.org/2000/svg">
<g filter="url(#filter0_d_152_4617)">
<path d="M3 34C3 16.3269 17.3269 2 35 2C52.6731 2 67 16.3269 67 34C67 51.6731 52.6731 66 35 66C17.3269 66 3 51.6731 3 34Z" fill="#333333"/>
<path d="M23.3333 22.3333H46.6667C48.5076 22.3333 50 23.8256 50 25.6666V42.3333C50 44.1742 48.5076 45.6666 46.6667 45.6666H23.3333C21.4924 45.6666 20 44.1742 20 42.3332V25.6666C20 23.8256 21.4924 22.3333 23.3333 22.3333Z" stroke="white" stroke-width="1.8" stroke-linecap="round" stroke-linejoin="round"/>
<path d="M48.3334 24L37.3571 34.9763C36.0554 36.2781 33.9448 36.2781 32.6431 34.9763L21.6667 24" stroke="white" stroke-width="1.8" stroke-linecap="round" stroke-linejoin="round"/>
</g>
<defs>
<filter id="filter0_d_152_4617" x="0" y="0" width="70" height="70" filterUnits="userSpaceOnUse" color-interpolation-filters="sRGB">
<feFlood flood-opacity="0" result="BackgroundImageFix"/>
<feColorMatrix in="SourceAlpha" type="matrix" values="0 0 0 0 0 0 0 0 0 0 0 0 0 0 0 0 0 0 127 0" result="hardAlpha"/>
<feOffset dy="1"/>
<feGaussianBlur stdDeviation="1.5"/>
<feComposite in2="hardAlpha" operator="out"/>
<feColorMatrix type="matrix" values="0 0 0 0 0 0 0 0 0 0 0 0 0 0 0 0 0 0 0.3 0"/>
<feBlend mode="normal" in2="BackgroundImageFix" result="effect1_dropShadow_152_4617"/>
<feBlend mode="normal" in="SourceGraphic" in2="effect1_dropShadow_152_4617" result="shape"/>
</filter>
</defs>
</svg>
