<svg width="24" height="24" viewBox="0 0 24 24" fill="none" xmlns="http://www.w3.org/2000/svg">
<path d="M18.1536 2.69971C17.3051 2.69971 16.6151 3.42494 16.6151 4.31669V4.60899L7.62582 8.38794C7.48006 8.44981 7.38428 8.59813 7.38428 8.76347V14.423C7.38428 14.5883 7.48006 14.7367 7.62582 14.7981L16.6151 18.5771V18.8698C16.6151 19.7616 17.3051 20.4868 18.1536 20.4868C19.002 20.4868 19.692 19.7615 19.692 18.8698V4.31669C19.692 3.42489 19.002 2.69971 18.1536 2.69971ZM18.9228 18.8697C18.9228 19.3156 18.5778 19.6782 18.1536 19.6782C17.7293 19.6782 17.3843 19.3156 17.3843 18.8697V18.3038C17.3843 18.138 17.2885 17.9897 17.1424 17.9282L8.15348 14.1493V9.03714L17.1424 5.25819C17.2886 5.19632 17.3843 5.04799 17.3843 4.88266V4.31669C17.3843 3.87082 17.7293 3.50818 18.1536 3.50818C18.5778 3.50818 18.9228 3.87077 18.9228 4.31669V18.8697Z" fill="#333333" stroke="#333333" stroke-width="0.1" stroke-linecap="square" stroke-linejoin="round"/>
<path d="M7.76926 8.35889H5.07696C3.38039 8.35889 2 9.80973 2 11.5929C2 13.3761 3.38039 14.8269 5.07696 14.8269H7.76926C7.98155 14.8269 8.15387 14.6462 8.15387 14.4227V8.76317C8.15387 8.53999 7.98155 8.35889 7.76926 8.35889ZM7.38466 14.0184H5.07696C3.80425 14.0184 2.76925 12.9306 2.76925 11.5929C2.76925 10.2552 3.80425 9.1674 5.07696 9.1674H7.38466V14.0184Z" fill="#333333" stroke="#333333" stroke-width="0.1" stroke-linecap="square" stroke-linejoin="round"/>
<path d="M21.7367 9.99658L19.429 9.18806C19.3113 9.14723 19.1832 9.16783 19.0825 9.24387C18.9821 9.31985 18.9229 9.44193 18.9229 9.57174V13.6142C18.9229 13.744 18.9821 13.8661 19.0825 13.9425C19.149 13.9926 19.2279 14.0185 19.3075 14.0185C19.3482 14.0185 19.3894 14.0116 19.429 13.9974L21.7367 13.1889C21.894 13.1343 21.9998 12.9799 21.9998 12.8057V10.3802C21.9998 10.206 21.894 10.052 21.7367 9.99658ZM21.2306 12.5142L19.6921 13.0531V10.1324L21.2306 10.6713V12.5142Z" fill="#333333" stroke="#333333" stroke-width="0.1" stroke-linecap="square" stroke-linejoin="round"/>
<path d="M9.65697 19.4736L9.27084 19.0673L8.14276 14.3255C8.10008 14.1456 7.9462 14.019 7.7697 14.019H4.69269C4.57501 14.019 4.46422 14.0757 4.39116 14.1719C4.31809 14.2689 4.29114 14.3954 4.31809 14.5159L5.85655 21.3882C5.89847 21.5737 6.05577 21.6998 6.23079 21.6998C6.25504 21.6998 6.27924 21.6974 6.30385 21.6922L9.19232 21.106C9.19615 21.1052 9.20003 21.1044 9.20386 21.1036C9.37311 21.0636 9.5277 20.9746 9.6508 20.8473C9.82617 20.665 9.92348 20.4224 9.92502 20.1629C9.92659 19.9037 9.83199 19.6596 9.65697 19.4736ZM9.11042 20.2716C9.09082 20.2922 9.06621 20.3064 9.03925 20.3136L6.52115 20.825L5.17844 14.8275H7.46924L8.5508 19.3721C8.5677 19.4433 8.60273 19.5084 8.65195 19.5601L9.11196 20.0436C9.15081 20.0844 9.15617 20.1325 9.15617 20.158C9.15581 20.1827 9.14968 20.2307 9.11042 20.2716Z" fill="#333333" stroke="#333333" stroke-width="0.1" stroke-linecap="square" stroke-linejoin="round"/>
</svg>
